<?xml version="1.0" encoding="UTF-8"?> <svg xmlns="http://www.w3.org/2000/svg" xmlns:xlink="http://www.w3.org/1999/xlink" xmlns:svgjs="http://svgjs.com/svgjs" width="512" height="512" x="0" y="0" viewBox="0 0 512 512" style="enable-background:new 0 0 512 512" xml:space="preserve" class=""> <g> <g xmlns="http://www.w3.org/2000/svg"> <path d="m266 250v-21.266c17.233-4.452 30-20.13 30-38.734 0-22.056-17.944-40-40-40-11.028 0-20-8.972-20-20s8.972-20 20-20c7.619 0 14.479 4.239 17.901 11.063 2.476 4.937 8.485 6.931 13.421 4.456 4.938-2.476 6.933-8.485 4.456-13.422-5.294-10.557-14.721-17.996-25.778-20.823v-21.274c0-5.523-4.478-10-10-10s-10 4.477-10 10v21.266c-17.233 4.452-30 20.13-30 38.734 0 22.056 17.944 40 40 40 11.028 0 20 8.972 20 20s-8.972 20-20 20c-7.619 0-14.479-4.239-17.901-11.063-2.476-4.937-8.485-6.93-13.421-4.456-4.938 2.476-6.933 8.485-4.456 13.422 5.294 10.558 14.721 17.996 25.778 20.823v21.274c0 5.523 4.478 10 10 10s10-4.477 10-10z" fill="#00adef" data-original="#000000" style="" class=""></path> <path d="m196 512h120c20.625 0 40.353-4.693 58.636-13.948 4.928-2.494 6.899-8.511 4.405-13.438-2.495-4.928-8.513-6.901-13.438-4.405-15.457 7.824-32.146 11.791-49.603 11.791h-49.55c5.066-55.988 52.265-100 109.55-100.01h49.553c-.854 9.511-2.929 18.81-6.199 27.76-1.896 5.188.773 10.929 5.961 12.825s10.929-.773 12.824-5.96c5.216-14.276 7.861-29.286 7.861-44.615 0-5.523-4.478-10-10-10h-60c-46.265 0-86.955 24.297-110 60.796v-114.274c8.145-2.426 17.588-8.313 26.849-21.005 20.77 9.201 34.767 5.883 43.149 1.045 8.383-4.837 18.258-15.302 20.67-37.894 22.591-2.412 33.056-12.287 37.894-20.67s8.155-22.382-1.045-43.148c18.358-13.395 22.483-27.176 22.483-36.85s-4.125-23.455-22.483-36.849c9.2-20.766 5.883-34.765 1.045-43.149-4.838-8.383-15.303-18.257-37.894-20.669-2.412-22.592-12.287-33.056-20.67-37.894-8.384-4.837-22.383-8.155-43.149 1.045-13.395-18.359-27.174-22.484-36.849-22.484s-23.454 4.125-36.849 22.483c-20.768-9.2-34.766-5.882-43.149-1.045s-18.258 15.302-20.67 37.894c-22.591 2.412-33.056 12.287-37.894 20.67s-8.155 22.382 1.045 43.148c-18.358 13.395-22.483 27.176-22.483 36.85s4.125 23.455 22.483 36.849c-9.2 20.766-5.883 34.765-1.045 43.149 4.838 8.383 15.303 18.257 37.894 20.669 2.412 22.592 12.287 33.056 20.67 37.894 8.385 4.838 22.383 8.156 43.149-1.045 9.26 12.692 18.704 18.579 26.849 21.005v114.275c-23.045-36.499-63.735-60.796-110-60.796h-60c-5.522 0-10 4.477-10 10 0 71.682 58.317 130 130 130zm35.2-232.521c-2.783-4.666-8.758-6.242-13.472-3.607-13.435 7.514-24.703 9.421-31.73 5.366-7.021-4.051-11.003-14.763-11.209-30.162-.072-5.418-4.447-9.792-9.865-9.865-15.398-.207-26.11-4.188-30.163-11.208-4.054-7.026-2.147-18.295 5.367-31.73 2.644-4.727 1.045-10.698-3.607-13.471-13.233-7.89-20.521-16.698-20.521-24.802s7.288-16.912 20.521-24.801c4.652-2.773 6.251-8.745 3.607-13.471-7.515-13.435-9.421-24.704-5.367-31.729 4.053-7.022 14.765-11.003 30.163-11.209 5.418-.073 9.793-4.447 9.865-9.865.206-15.399 4.188-26.111 11.209-30.162 7.024-4.056 18.296-2.148 31.73 5.366 4.729 2.645 10.698 1.044 13.472-3.607 7.888-13.234 16.696-20.522 24.8-20.522s16.912 7.288 24.8 20.521c2.772 4.65 8.74 6.252 13.472 3.607 13.435-7.514 24.703-9.421 31.73-5.366 7.021 4.051 11.003 14.763 11.209 30.162.072 5.418 4.447 9.792 9.865 9.865 15.398.207 26.11 4.188 30.163 11.208 4.054 7.026 2.147 18.295-5.367 31.73-2.644 4.727-1.045 10.698 3.607 13.471 13.233 7.89 20.521 16.698 20.521 24.802s-7.288 16.912-20.521 24.801c-4.652 2.773-6.251 8.745-3.607 13.471 7.515 13.435 9.421 24.704 5.367 31.729-4.053 7.022-14.765 11.003-30.163 11.209-5.418.073-9.793 4.447-9.865 9.865-.206 15.399-4.188 26.111-11.209 30.162-7.024 4.056-18.296 2.149-31.73-5.366-4.728-2.644-10.698-1.044-13.472 3.607-7.888 13.234-16.696 20.522-24.8 20.522s-16.912-7.288-24.8-20.521zm-95.2 112.521c57.285 0 104.483 44.012 109.55 100h-49.55c-57.285 0-104.483-44.012-109.55-100z" fill="#00adef" data-original="#000000" style="" class=""></path> <circle cx="406" cy="462" r="10" fill="#00adef" data-original="#000000" style="" class=""></circle> </g> </g> </svg> 