<?xml version="1.0" encoding="UTF-8"?> <svg xmlns="http://www.w3.org/2000/svg" xmlns:xlink="http://www.w3.org/1999/xlink" xmlns:svgjs="http://svgjs.com/svgjs" width="512" height="512" x="0" y="0" viewBox="0 0 60 60" style="enable-background:new 0 0 512 512" xml:space="preserve" class=""> <g> <g xmlns="http://www.w3.org/2000/svg" id="Page-1" fill="none" fill-rule="evenodd"> <g id="031---No-Virus" fill="rgb(0,0,0)" fill-rule="nonzero"> <path id="Shape" d="m30 0c-16.5685425 0-30 13.4314575-30 30s13.4314575 30 30 30 30-13.4314575 30-30c-.018737-16.5607751-13.4392249-29.98126296-30-30zm0 58c-15.463973 0-28-12.536027-28-28s12.536027-28 28-28 28 12.536027 28 28c-.0176345 15.4566626-12.5433374 27.9823655-28 28z" fill="#00adef" data-original="#000000" style="" class=""></path> <path id="Shape" d="m47.529 13.876-33.653 33.653c-.4070166.4080254-.6199448.9707382-.585 1.546.0338141.5636148.3075993 1.0856998.752 1.434 4.564409 3.5641866 10.1908675 5.4972916 15.982 5.491.7133333 0 1.4283333-.0293333 2.145-.088 9.5091157-.7898306 17.8201893-6.7283821 21.6484809-15.4685937s2.5577479-18.875598-3.3094809-26.4004063c-.3480732-.4441484-.8697414-.7179059-1.433-.752-.5749765-.0311498-1.1365032.1811923-1.547.585zm-17.529 28.124c-2.1474329.0038749-4.2556728-.5750271-6.1-1.675l3.363-3.365c.6798934 1.9900028 2.6504006 3.2410689 4.7405847 3.0097758 2.0901842-.2312931 3.7394891-1.882916 3.9678463-3.973423.2283572-2.0905069-1.0254752-4.059255-3.016431-4.7363528l7.364-7.371c1.1042295 1.8468292 1.685306 3.9592374 1.681 6.111-.0071648 6.624447-5.375553 11.9928352-12 12zm9.5 3.454c.0878485-.0001119.1753083.0116616.26.035.3899679.1053269.6782727.4349271.7307707.8354427.0524979.4005155-.1411217.7932844-.4907707.9955573-.364075.2102235-.820759.1702849-1.1428169-.0999432s-.4407091-.7130342-.2969155-1.1080886.5193224-.6579867.9397324-.6579682zm-8.5 3.546c0 .5522847-.4477153 1-1 1s-1-.4477153-1-1 .4477153-1 1-1 1 .4477153 1 1zm.184-15.964c.104408-.0190651.2099792-.0310922.316-.036 1.3807119 0 2.5 1.1192881 2.5 2.5s-1.1192881 2.5-2.5 2.5-2.5-1.1192881-2.5-2.5c.0048514-.1053631.0168793-.2102729.036-.314zm22.734-1.028c-.7291081 8.7725796-6.2063092 16.4403912-14.2683455 19.9749806-8.0620362 3.5345894-17.4126123 2.3676297-24.3586545-3.0399806l7.159-7.165c1.963574 1.2699078 4.2171812 2.0209955 6.55 2.183v2.223c-1.3775467.4870363-2.2038721 1.8956662-1.9567957 3.3357331.2470764 1.4400668 1.4956868 2.492694 2.9567957 2.492694s2.7097193-1.0526272 2.9567957-2.492694c.2470764-1.4400669-.579249-2.8486968-1.9567957-3.3357331v-2.235c1.774572-.1248484 3.5084875-.5903268 5.107-1.371l1.119 1.938c-.9602113 1.1175212-.9745546 2.7646141-.0339508 3.8986881s2.5619489 1.4245227 3.8377429.6874956c1.275794-.7370272 1.8341161-2.2866713 1.321555-3.6680259-.5125612-1.3813546-1.9465833-2.1917256-3.3943471-1.9181578l-1.112-1.926c1.4729626-.9999553 2.7430447-2.2700374 3.743-3.743l1.926 1.112c-.1638237.8737613.0696536 1.7751103.6370753 2.4594565.5674217.6843461 1.4099386 1.0807134 2.2989247 1.0815435 1.3327961.0100692 2.5124256-.860397 2.8958485-2.1368897s-.1213099-2.6528945-1.2390584-3.3789008c-1.1177485-.7260062-2.5804638-.6275124-3.5907901.2417905l-1.938-1.119c.7806732-1.5985125 1.2461516-3.332428 1.371-5.107h2.235c.4870363 1.3775467 1.8956662 2.2038721 3.3357331 1.9567957 1.4400668-.2470764 2.492694-1.4956868 2.492694-2.9567957s-1.0526272-2.7097193-2.492694-2.9567957c-1.4400669-.2470764-2.8486968.579249-3.3357331 1.9567957h-2.223c-.1620893-2.3366502-.9157034-4.5937073-2.19-6.559l7.161-7.168c3.7081128 4.7524476 5.4884764 10.728056 4.986 16.735zm-8.329 6.992c.2386109-.4130933.7357915-.6001188 1.1875059-.4467067.4517145.153412.732165.604538.6698504 1.0775053-.0623145.4729673-.4500401.8360595-.9260748.8672385-.4760348.0311789-.9078079-.2782384-1.0312815-.7390371-.0700239-.2561579-.0339815-.5297203.1-.759zm2.411-9c0-.5522847.4477153-1 1-1s1 .4477153 1 1-.4477153 1-1 1-1-.4477153-1-1z" fill="#00adef" data-original="#000000" style="" class=""></path> <path id="Shape" d="m46.709 10.924c-.0340941-.5632586-.3078516-1.08492683-.752-1.433-10.3428374-8.06511483-25.0748063-7.1571411-34.3489737 2.1170263-9.2741674 9.2741674-10.18214113 24.0061363-2.1170263 34.3489737.34807317.4441484.8697414.7179059 1.433.752h.124c.5332303.0003795 1.0447595-.2111389 1.422-.588l33.654-33.651c.4071271-.4079541.6200748-.9707185.585-1.546zm-16.709 7.076c2.1451091-.0036465 4.2511008.5741708 6.094 1.672l-3.258 3.258c-.5121643-1.8602075-2.2820178-3.0874302-4.2037115-2.9148684-1.9216937.1725619-3.444595 1.6954632-3.6171569 3.6171569-.1725618 1.9216937 1.0546609 3.6915472 2.9148684 4.2037115l-8.258 8.258c-1.0978292-1.8428992-1.6756465-3.9488909-1.672-6.094.0071648-6.624447 5.375553-11.9928352 12-12zm-9.759-3.489c-.437107-.1172363-.7409957-.5134162-.7409462-.9659721.0000494-.452556.3040246-.8486695.7411572-.9658103s.898449.0738933 1.124789.4657824c.1329197.2297689.169032.5029578.1003798.759372-.0686523.2564142-.2364354.4750122-.4663798.607628-.2291953.134302-.5030237.1700187-.759.099zm8.759-3.511c0-.5522847.4477153-1 1-1s1 .4477153 1 1-.4477153 1-1 1-1-.4477153-1-1zm1.116 14.65c-.8620737.5865649-2.0288812.4209994-2.6937481-.3822324-.664867-.8032319-.6095157-1.9804267.1277866-2.7177291.7373024-.7373023 1.9144972-.7926536 2.7177291-.1277866.8032318.6648669.9687973 1.8316744.3822324 2.6937481zm7.43-7.43c-1.9624668-1.2688397-4.2146782-2.0192328-6.546-2.181v-2.223c1.3775467-.4870363 2.2038721-1.8956662 1.9567957-3.3357331-.2470764-1.44006679-1.4956868-2.49269402-2.9567957-2.49269402s-2.7097193 1.05262723-2.9567957 2.49269402c-.2470764 1.4400669.579249 2.8486968 1.9567957 3.3357331v2.235c-1.774572.1248484-3.5084875.5903268-5.107 1.371l-1.119-1.938c1.1047184-1.1998578 1.169704-3.0259624.1530708-4.3013127-1.0166332-1.27535032-2.8112743-1.6190714-4.2272019-.8096206s-2.0302841 2.5303364-1.447091 4.0534737c.5831931 1.5231374 2.189769 2.3936515 3.7842221 2.0504596l1.118 1.935c-1.4729626.9999553-2.7430447 2.2700374-3.743 3.743l-1.926-1.112c.2431389-1.2482526-.3365359-2.5125953-1.441-3.143-1.3215861-.78288-3.0206897-.4446361-3.9417033.7846828-.9210137 1.2293188-.7682253 2.9550122.3544495 4.0033882 1.1226748 1.0483761 2.8547761 1.0828301 4.0182538.079929l1.946 1.123c-.7809205 1.5991285-1.2464052 3.3337465-1.371 5.109h-2.235c-.4870363-1.3775467-1.8956662-2.2038721-3.3357331-1.9567957-1.44006679.2470764-2.49269402 1.4956868-2.49269402 2.9567957s1.05262723 2.7097193 2.49269402 2.9567957c1.4400669.2470764 2.8486968-.579249 3.3357331-1.9567957h2.223c.1617672 2.3313218.9121603 4.5835332 2.181 6.546l-7.163 7.163.707.708-.7-.69c-5.41496983-6.9455255-6.58739062-16.3002563-3.05393148-24.367281 3.53345918-8.0670248 11.20424668-13.54831823 19.98093148-14.277719.6633333-.05466667 1.3243333-.082 1.983-.082 5.3385723-.00809336 10.5260775 1.77188807 14.735 5.056zm-23.135 2.78c-.242775.4204964-.7525263.6058348-1.2086798.439459-.4561535-.1663757-.7268769-.6363816-.6419168-1.1144388s.5010495-.8260031.9865966-.8250202c.3569037.0007225.6863685.1916068.8645074.5008757.1781389.309269.1779456.6900364-.0005074.9991243zm-2.411 9c0 .5522847-.4477153 1-1 1s-1-.4477153-1-1 .4477153-1 1-1 1 .4477153 1 1z" fill="#00adef" data-original="#000000" style="" class=""></path> <circle id="Oval" cx="38" cy="31" r="1" fill="#00adef" data-original="#000000" style="" class=""></circle> <circle id="Oval" cx="22" cy="28" r="1" fill="#00adef" data-original="#000000" style="" class=""></circle> </g> </g> </g> </svg> 